HIERARCHY
ROOT root
{
	OFFSET	0	13.1	24.9
	CHANNELS 6  Xposition Yposition Zposition Xrotation Yrotation Zrotation
	JOINT spine_1
	{
		OFFSET	0	9.99999	0
		CHANNELS 3  Xrotation Yrotation Zrotation
		JOINT spine_2
		{
			OFFSET	0	112	-10
			CHANNELS 3  Xrotation Yrotation Zrotation
			JOINT spine_3
			{
				OFFSET	0	206.5	19.3
				CHANNELS 3  Xrotation Yrotation Zrotation
				JOINT spine_4
				{
					OFFSET	0	110.4	14.6
					CHANNELS 3  Xrotation Yrotation Zrotation
					JOINT neck_1
					{
						OFFSET	0	71.8	-50.3
						CHANNELS 3  Xrotation Yrotation Zrotation
						JOINT neck_2
						{
							OFFSET	0	86.2	-25.8
							CHANNELS 3  Xrotation Yrotation Zrotation
							JOINT head_ee
							{
								OFFSET	0	179.8	-8.7
								CHANNELS 3  Xrotation Yrotation Zrotation
								End Site
								{
									OFFSET	1	0	0
								}
							}
						}
					}
					JOINT left_clavicle
					{
						OFFSET	-43.2	22.4	-70.8
						CHANNELS 3  Xrotation Yrotation Zrotation
						JOINT left_shoulder
						{
							OFFSET	-93.9	-5.79999	48.7
							CHANNELS 3  Xrotation Yrotation Zrotation
							JOINT left_elbow
							{
								OFFSET	-291.4	-30.8	15.2
								CHANNELS 3  Xrotation Yrotation Zrotation
								JOINT left_lowarm_twist
								{
									OFFSET	-110.7	-3.89999	13.6
									CHANNELS 3  Xrotation Yrotation Zrotation
									JOINT left_hand
									{
										OFFSET	-110.7	-3.89999	13.6
										CHANNELS 3  Xrotation Yrotation Zrotation
										JOINT left_ee
										{
											OFFSET	-80.8	-5.10001	12.1
											CHANNELS 3  Xrotation Yrotation Zrotation
											End Site
											{
												OFFSET	1	0	0
											}
										}
									}
								}
							}
						}
					}
					JOINT right_clavicle
					{
						OFFSET	43.2	22.4	-70.8
						CHANNELS 3  Xrotation Yrotation Zrotation
						JOINT right_shoulder
						{
							OFFSET	93.9	-5.79999	48.7
							CHANNELS 3  Xrotation Yrotation Zrotation
							JOINT right_elbow
							{
								OFFSET	291.4	-30.8	15.2
								CHANNELS 3  Xrotation Yrotation Zrotation
								JOINT right_lowarm_twist
								{
									OFFSET	110.7	-3.89999	13.6
									CHANNELS 3  Xrotation Yrotation Zrotation
									JOINT right_hand
									{
										OFFSET	110.7	-3.89999	13.6
										CHANNELS 3  Xrotation Yrotation Zrotation
										JOINT right_ee
										{
											OFFSET	80.8	-5.10001	12.1
											CHANNELS 3  Xrotation Yrotation Zrotation
											End Site
											{
												OFFSET	1	0	0
											}
										}
									}
								}
							}
						}
					}
				}
			}
		}
	}
	JOINT left_hip
	{
		OFFSET	-82.8	-127.5	0.300001
		CHANNELS 3  Xrotation Yrotation Zrotation
		JOINT left_knee
		{
			OFFSET	-28.2	-396.7	2.2
			CHANNELS 3  Xrotation Yrotation Zrotation
			JOINT left_ankle
			{
				OFFSET	-11.7	-411.3	35.4
				CHANNELS 3  Xrotation Yrotation Zrotation
				JOINT left_toes
				{
					OFFSET	0	-60	-88.6
					CHANNELS 3  Xrotation Yrotation Zrotation
					JOINT left_foot_ee
					{
						OFFSET	-22.5	-16.5	-42.2
						CHANNELS 3  Xrotation Yrotation Zrotation
						End Site
						{
							OFFSET	1	0	0
						}
					}
				}
			}
		}
	}
	JOINT right_hip
	{
		OFFSET	82.8	-127.5	0.300001
		CHANNELS 3  Xrotation Yrotation Zrotation
		JOINT right_knee
		{
			OFFSET	28.2	-396.7	2.2
			CHANNELS 3  Xrotation Yrotation Zrotation
			JOINT right_ankle
			{
				OFFSET	11.7	-411.3	35.4
				CHANNELS 3  Xrotation Yrotation Zrotation
				JOINT right_toes
				{
					OFFSET	0	-60	-88.6
					CHANNELS 3  Xrotation Yrotation Zrotation
					JOINT right_foot_ee
					{
						OFFSET	22.5	-16.5	-42.2
						CHANNELS 3  Xrotation Yrotation Zrotation
						End Site
						{
							OFFSET	1	0	0
						}
					}
				}
			}
		}
	}
}
MOTION
Frames: 6
Frame Time: 0.02
3498.47735472 735.762 -1501.10990949 18.6596421804 71.0835467418 -15.5545715822 -1.85324 -0.138038 -1.29581 -1.85231 -0.0553094 -1.30197 -1.85015 0.260964 -1.27675 -1.85242 0.056068 -1.30193 -13.4629 3.59404 6.8544 -13.335 2.59289 7.61631 -0.0 0.0 -0.0 1.50049 11.8594 3.92136 -10.7195 -28.7255 68.8975 1.24468 -31.6557 0.352875 -84.0603 -8.33426 5.2067 -0.149922 18.4488 6.57064 -0.0 0.0 -0.0 3.78733 8.72445 -6.75574 19.4046 8.88408 -73.5743 0.423457 11.8473 -0.0439368 56.1224 1.44113 6.73893 -1.81747 -5.49699 9.65779 0.0 0.0 0.0 8.30411 19.5538 -11.2357 -19.4502 0.301775 2.95522 39.7893 7.07297 -4.84269 -17.9175 0.0 0.0 -0.0 0.0 -0.0 -7.78538 29.7839 -12.1697 -11.1016 -0.295553 -1.67542 39.3909 -9.16832 4.81709 23.9666 -0.0 -0.0 0.0 0.0 0.0 
3499.61740028 735.762 -1504.18769969 16.7100958957 68.8544378686 -13.4799178321 -1.85324 -0.138038 -1.29581 -1.85231 -0.0553094 -1.30197 -1.85015 0.260964 -1.27675 -1.85242 0.056068 -1.30193 -13.4629 3.59404 6.8544 -13.335 2.59289 7.61631 -0.0 0.0 -0.0 1.50049 11.8594 3.92136 -10.7195 -28.7255 68.8975 1.24468 -31.6557 0.352875 -84.0603 -8.33426 5.2067 -0.149922 18.4488 6.57064 -0.0 0.0 -0.0 3.78733 8.72445 -6.75574 19.4046 8.88408 -73.5743 0.423457 11.8473 -0.0439368 56.1224 1.44113 6.73893 -1.81747 -5.49699 9.65779 0.0 0.0 0.0 8.30411 19.5538 -11.2357 -19.4502 0.301775 2.95522 39.7893 7.07297 -4.84269 -17.9175 0.0 0.0 -0.0 0.0 -0.0 -7.78538 29.7839 -12.1697 -11.1016 -0.295553 -1.67542 39.3909 -9.16832 4.81709 23.9666 -0.0 -0.0 0.0 0.0 0.0 
3499.65820376 735.762 -1504.29110313 16.6514172911 68.7785472393 -13.4169868605 -1.85324 -0.138038 -1.29581 -1.85231 -0.0553094 -1.30197 -1.85015 0.260964 -1.27675 -1.85242 0.056068 -1.30193 -13.4629 3.59404 6.8544 -13.335 2.59289 7.61631 -0.0 0.0 -0.0 1.50049 11.8594 3.92136 -10.7195 -28.7255 68.8975 1.24468 -31.6557 0.352875 -84.0603 -8.33426 5.2067 -0.149922 18.4488 6.57064 -0.0 0.0 -0.0 3.78733 8.72445 -6.75574 19.4046 8.88408 -73.5743 0.423457 11.8473 -0.0439368 56.1224 1.44113 6.73893 -1.81747 -5.49699 9.65779 0.0 0.0 0.0 8.30411 19.5538 -11.2357 -19.4502 0.301775 2.95522 39.7893 7.07297 -4.84269 -17.9175 0.0 0.0 -0.0 0.0 -0.0 -7.78538 29.7839 -12.1697 -11.1016 -0.295553 -1.67542 39.3909 -9.16832 4.81709 23.9666 -0.0 -0.0 0.0 0.0 0.0 
3486.47828742 734.666 -1498.40597638 23.0043120888 70.7587453272 -19.5780562394 -2.3042 -0.0787027 -1.23399 -2.30335 -2.73408e-05 -1.2365 -2.30249 0.308258 -1.19746 -2.30447 0.115287 -1.23111 -13.5064 3.10632 6.53584 -13.3883 1.86695 7.16713 -0.0 0.0 -0.0 1.33499 12.6248 3.70757 -12.5154 -28.7971 69.5704 1.14772 -29.6192 0.303456 -84.5359 -8.39386 5.19575 -0.160482 18.4011 6.4879 -0.0 0.0 -0.0 4.02276 9.81999 -7.1643 21.3144 8.98088 -73.7353 0.512314 14.2404 -0.0639959 56.9173 1.50729 6.81638 -1.77775 -5.87171 9.21723 0.0 0.0 0.0 10.4281 19.2374 -12.5194 -21.2606 0.278526 3.23203 39.8807 9.37177 -4.86163 -17.4229 0.0 0.0 -0.0 0.0 -0.0 -9.98707 30.112 -11.6865 -11.8827 -0.304044 -1.79499 39.9877 -9.31739 4.87067 23.8862 -0.0 -0.0 0.0 0.0 0.0 
3471.12794946 736.616 -1490.84973003 32.4658879019 74.8773835312 -28.9150312242 -2.56417 -0.0484752 -1.23547 -2.56332 0.0302334 -1.23606 -2.56309 0.342866 -1.18794 -2.56503 0.150965 -1.22718 -13.8189 2.51161 6.15011 -13.713 1.00948 6.62308 -0.0 0.0 -0.0 1.08957 12.7466 3.31074 -14.3596 -29.2831 70.6522 1.05357 -27.5597 0.258395 -84.967 -8.44781 5.18539 -0.149373 18.6593 6.65617 -0.0 0.0 -0.0 4.49048 11.3514 -8.03164 23.6828 9.1299 -73.8624 0.559046 15.4794 -0.0759813 57.5357 1.55952 6.876 -1.70654 -5.88783 8.73778 0.0 0.0 0.0 12.9602 18.9171 -13.7093 -22.5068 0.257445 3.42209 38.7843 11.1564 -4.77732 -16.9378 0.0 0.0 -0.0 0.0 -0.0 -12.0437 29.6952 -11.617 -10.6373 -0.289734 -1.60442 39.4948 -9.60277 4.82908 23.3882 -0.0 -0.0 0.0 0.0 0.0 
3459.51752781 734.099 -1485.68244059 43.5556242447 77.6139351394 -40.3055376648 -2.6584 -0.0387426 -1.23568 -2.65756 0.0399595 -1.23564 -2.65753 0.354125 -1.18449 -2.65945 0.162627 -1.22555 -13.4942 2.14428 5.70554 -13.4026 0.547801 6.08604 -0.0 0.0 -0.0 0.859281 13.2582 2.97744 -16.1547 -29.4852 70.9919 0.949358 -25.1864 0.212093 -85.1228 -8.46727 5.18155 -0.107648 18.2788 6.76098 -0.0 0.0 -0.0 4.80474 11.4039 -8.68731 25.8239 9.27797 -73.1478 0.635147 17.4654 -0.0975632 58.2811 1.62331 6.94712 -1.60951 -6.42853 7.84446 0.0 0.0 0.0 14.3782 19.0157 -14.0224 -25.4082 0.192382 3.86253 39.1752 13.4475 -4.83693 -16.7482 0.0 0.0 -0.0 0.0 -0.0 -14.1557 28.3277 -11.2572 -10.4331 -0.286993 -1.57322 39.0222 -9.57444 4.78672 22.5154 -0.0 -0.0 0.0 0.0 0.0 
